<svg id="Layer_1" xmlns="http://www.w3.org/2000/svg" xmlns:xlink="http://www.w3.org/1999/xlink" viewBox="0 0 385 230"><style>.st0{opacity:.25}.st0,.st1{fill:#ceead6}.st2{fill:#a8dab5}.st3{fill:#5bb974}.st4,.st5,.st6{clip-path:url(#SVGID_2_);fill:#e6f4ea}.st5,.st6{fill:#ceead6}.st6{display:none;fill:url(#SVGID_3_)}.st7{clip-path:url(#SVGID_5_);fill:#fef7e0}.st8{fill:#fff}.st8,.st9{clip-path:url(#SVGID_5_)}.st10{fill:#fff}.st11{display:none;clip-path:url(#SVGID_7_);fill:#fee293}.st12,.st13{fill:#feefc3}.st13{clip-path:url(#SVGID_9_)}.st14{fill:#fff}.st14,.st15{clip-path:url(#SVGID_9_)}.st16{display:none;clip-path:url(#SVGID_11_)}.st16,.st17{fill:#fee293}.st18{fill:#e8f0fe}.st19{fill:#d2e3fc}.st20{fill:#669df6}.st21{fill:#fef7e0}.st22{fill:#fdd663}.st23{fill:#fce8e6}.st24{fill:#fad2cf}.st25{fill:#f28b82}.st26{fill:url(#SVGID_12_)}.st27{fill:#34a853}</style><g id="Green"><path id="Green_Shadow" class="st0" d="M208.7 93.36c2.92 0 5.29 2.37 5.29 5.29v101.43c0 .45-.53.69-.87.4l-13.15-11.13-10.4-8.51c-.95-.77-2.13-1.2-3.35-1.2h-70.49c-2.92 0-5.29-2.37-5.29-5.29v-75.7c0-2.92 2.37-5.29 5.29-5.29h92.97z"/><path class="st1" d="M246.54 180.23c0 5.36 2.36 10.17 6.09 13.44 3.15 2.79 7.3 4.48 11.83 4.48s8.68-1.69 11.83-4.48a17.83 17.83 0 0 0 6.09-13.44c0-9.9-8.02-17.92-17.92-17.92-9.9 0-17.92 8.02-17.92 17.92z"/><path class="st2" d="M252.63 193.67a17.759 17.759 0 0 0 11.83 4.48c2.27 0 4.44-.42 6.43-1.19s3.82-1.89 5.4-3.29a17.759 17.759 0 0 0-11.83-4.48 17.759 17.759 0 0 0-11.83 4.48z"/><circle class="st2" cx="264.46" cy="180.23" r="8.96"/><path class="st3" d="M264.46 198.46c-4.45 0-8.72-1.62-12.04-4.56a18.191 18.191 0 0 1-6.19-13.67c0-10.05 8.18-18.23 18.23-18.23s18.23 8.18 18.23 18.23c0 5.24-2.26 10.22-6.19 13.67-3.32 2.94-7.6 4.56-12.04 4.56zm0-35.84c-9.71 0-17.61 7.9-17.61 17.61 0 5.06 2.18 9.87 5.98 13.21 3.2 2.84 7.33 4.4 11.63 4.4s8.42-1.56 11.63-4.4a17.57 17.57 0 0 0 5.98-13.21c-.01-9.71-7.9-17.61-17.61-17.61z"/><path class="st3" d="M276.08 193.9c-3.2-2.84-7.33-4.4-11.63-4.4s-8.42 1.56-11.63 4.4l-.41-.46c3.32-2.94 7.59-4.56 12.04-4.56s8.72 1.62 12.04 4.56l-.41.46z"/><path class="st3" d="M264.46 189.5c-5.11 0-9.27-4.16-9.27-9.27s4.16-9.27 9.27-9.27c5.11 0 9.27 4.16 9.27 9.27s-4.16 9.27-9.27 9.27zm0-17.92c-4.77 0-8.65 3.88-8.65 8.65s3.88 8.65 8.65 8.65c4.77 0 8.65-3.88 8.65-8.65s-3.88-8.65-8.65-8.65z"/><defs><path id="SVGID_1_" d="M247.94 50.93a6.21 6.21 0 0 1 6.21 6.21V176.23c0 .53-.62.82-1.02.47l-15.44-13.07-12.21-9.99c-1.11-.91-2.5-1.4-3.93-1.4H138.8a6.21 6.21 0 0 1-6.21-6.21V57.14a6.21 6.21 0 0 1 6.21-6.21h109.14z"/></defs><clipPath id="SVGID_2_"><use xlink:href="#SVGID_1_" overflow="visible"/></clipPath><path class="st4" d="M247.94 50.93a6.21 6.21 0 0 1 6.21 6.21V176.23c0 .53-.62.82-1.02.47l-15.44-13.07-12.21-9.99c-1.11-.91-2.5-1.4-3.93-1.4H138.8a6.21 6.21 0 0 1-6.21-6.21V57.14a6.21 6.21 0 0 1 6.21-6.21h109.14z"/><path class="st5" d="M243.19 81.09c0 3.28 1.44 6.22 3.72 8.22 1.93 1.71 4.46 2.74 7.24 2.74 2.77 0 5.31-1.03 7.24-2.74 2.28-2 3.72-4.94 3.72-8.22 0-6.05-4.91-10.96-10.96-10.96-6.06 0-10.96 4.9-10.96 10.96zM125.2 109.66c0 3.28 1.44 6.22 3.72 8.22 1.93 1.71 4.46 2.74 7.24 2.74 2.77 0 5.31-1.03 7.24-2.74 2.28-2 3.72-4.94 3.72-8.22 0-6.05-4.91-10.96-10.96-10.96-6.05 0-10.96 4.91-10.96 10.96z"/><linearGradient id="SVGID_3_" gradientUnits="userSpaceOnUse" x1="2041.012" y1="52.195" x2="1911.309" y2="162.128" gradientTransform="matrix(-1 0 0 1 2176.098 0)"><stop offset="0" stop-color="#a8dab5" stop-opacity="0"/><stop offset=".853" stop-color="#a8dab5" stop-opacity=".853"/><stop offset="1" stop-color="#a8dab5"/></linearGradient><path class="st6" d="M247.94 50.93a6.21 6.21 0 0 1 6.21 6.21V176.23c0 .53-.62.82-1.02.47l-15.44-13.07-12.21-9.99c-1.11-.91-2.5-1.4-3.93-1.4H138.8a6.21 6.21 0 0 1-6.21-6.21V57.14a6.21 6.21 0 0 1 6.21-6.21h109.14z"/><path class="st3" d="M173.75 152.55h-3.86v-.62h3.86v.62zm-7.73 0h-3.86v-.62h3.86v.62zm-7.72 0h-3.86v-.62h3.86v.62zm-7.72 0h-3.86v-.62h3.86v.62zm-7.72 0H139v-.62h3.86v.62zm-7.69-1.09a6.584 6.584 0 0 1-2.49-3.12l.58-.22a5.94 5.94 0 0 0 2.25 2.82l-.34.52zm-2.29-7.04h-.62v-3.86h.62v3.86zm0-7.72h-.62v-3.86h.62v3.86zm0-7.72h-.62v-3.86h.62v3.86zm0-7.72h-.62v-3.86h.62v3.86zM198.72 151.93h12.37v.62h-12.37zM253.52 177.16c-.21 0-.43-.08-.6-.22l-15.44-13.07-12.21-9.99a5.917 5.917 0 0 0-3.74-1.33h-4.7v-.62h4.7c1.5 0 2.97.52 4.13 1.47l12.21 9.99 15.45 13.07c.14.12.29.06.33.04.04-.02.18-.1.18-.28V145.9h.62v30.32c0 .37-.21.69-.54.84-.12.07-.25.1-.39.1zM254.16 140.16h-.62l.02-3.86h.62l-.02 3.86zm.05-7.72h-.62l.02-3.86h.62l-.02 3.86zm.04-7.72h-.62l.02-3.86h.62l-.02 3.86zm.05-7.72h-.62l.02-3.86h.62l-.02 3.86zm.04-7.73h-.62l.02-3.86h.62l-.02 3.86zm.05-7.72h-.62l.02-3.86h.62l-.02 3.86zm.04-7.72h-.62l.02-3.86h.62l-.02 3.86zM132.88 90.39h-.62v-3.86h.62v3.86zm0-7.72h-.62v-3.86h.62v3.86zm0-7.72h-.62v-3.86h.62v3.86zm0-7.72h-.62v-3.86h.62v3.86zm121.58-5.99h-.62v-3.86h.62v3.86zM132.88 59.5h-.62v-2.36c0-.53.06-1.05.19-1.56l.6.15c-.11.46-.17.93-.17 1.41v2.36zm119.98-5.61a6.02 6.02 0 0 0-2.82-2.26l.22-.58a6.58 6.58 0 0 1 3.11 2.5l-.51.34zm-117.92-1.23l-.4-.47a6.502 6.502 0 0 1 3.68-1.55l.05.62c-1.24.11-2.39.59-3.33 1.4zm111.41-1.42h-3.86v-.62h3.86v.62zm-7.72 0h-3.86v-.62h3.86v.62zm-7.73 0h-3.86v-.62h3.86v.62zm-7.72 0h-3.86v-.62h3.86v.62zm-7.72 0h-3.86v-.62h3.86v.62zm-7.72 0h-3.86v-.62h3.86v.62zm-7.72 0h-3.86v-.62h3.86v.62zm-7.73 0h-3.86v-.62h3.86v.62zm-7.72 0h-3.86v-.62h3.86v.62zm-7.72 0h-3.86v-.62h3.86v.62zm-7.72 0h-3.86v-.62h3.86v.62zm-7.72 0h-3.86v-.62h3.86v.62zm-7.73 0h-3.86v-.62h3.86v.62zm-7.72 0h-3.86v-.62h3.86v.62z"/><defs><path id="SVGID_4_" d="M219.79 154.98c.62 0 1.13.51 1.13 1.13v21.65c0 .1-.11.15-.19.09l-2.81-2.38-2.22-1.82c-.2-.17-.45-.26-.72-.26h-15.05c-.62 0-1.13-.51-1.13-1.13V156.1c0-.62.51-1.13 1.13-1.13h19.86z"/></defs><clipPath id="SVGID_5_"><use xlink:href="#SVGID_4_" overflow="visible"/></clipPath><path class="st7" d="M219.79 154.98c.62 0 1.13.51 1.13 1.13v21.65c0 .1-.11.15-.19.09l-2.81-2.38-2.22-1.82c-.2-.17-.45-.26-.72-.26h-15.05c-.62 0-1.13-.51-1.13-1.13V156.1c0-.62.51-1.13 1.13-1.13h19.86z"/><path class="st8" d="M131.25 80.63h.77V91.2h-.77z"/><g class="st9"><path class="st10" d="M131.25 80.63h.77V91.2h-.77z"/></g><g><defs><path id="SVGID_6_" d="M220.81 178.84a1.067 1.067 0 0 0 1.07-1.07v-21.65c0-1.15-.94-2.09-2.09-2.09h-19.85c-1.15 0-2.09.94-2.09 2.09v16.16c0 1.15.94 2.09 2.09 2.09h15.05c.04 0 .08.01.11.04l2.22 1.82 2.79 2.37c.2.15.45.24.7.24zm-1.02-22.9c.09 0 .17.08.17.17v19.83l-1.42-1.2-2.23-1.83c-.37-.3-.84-.47-1.32-.47h-15.05c-.09 0-.17-.08-.17-.17v-16.16c0-.09.08-.17.17-.17h19.85z"/></defs><clipPath id="SVGID_7_"><use xlink:href="#SVGID_6_" overflow="visible"/></clipPath><path class="st11" d="M220.81 178.84a1.067 1.067 0 0 0 1.07-1.07v-21.65c0-1.15-.94-2.09-2.09-2.09h-19.85c-1.15 0-2.09.94-2.09 2.09v16.16c0 1.15.94 2.09 2.09 2.09h15.05c.04 0 .08.01.11.04l2.22 1.82 2.79 2.37c.2.15.45.24.7.24zm-1.02-22.9c.09 0 .17.08.17.17v19.83l-1.42-1.2-2.23-1.83c-.37-.3-.84-.47-1.32-.47h-15.05c-.09 0-.17-.08-.17-.17v-16.16c0-.09.08-.17.17-.17h19.85z"/></g><path class="st12" d="M220.81 178.19c-.1 0-.19-.03-.27-.1l-2.81-2.38-2.22-1.81a.832.832 0 0 0-.52-.19h-15.05c-.79 0-1.44-.65-1.44-1.44v-16.16c0-.79.64-1.44 1.44-1.44h19.85c.79 0 1.44.65 1.44 1.44v21.65c0 .17-.09.31-.24.38-.06.04-.12.05-.18.05zm-20.87-22.9c-.45 0-.82.37-.82.82v16.16c0 .45.37.82.82.82h15.05c.33 0 .66.12.91.33l2.22 1.82 2.49 2.11v-21.23c0-.45-.37-.82-.82-.82h-19.85z"/><g><defs><path id="SVGID_8_" d="M213.33 148.52c.62 0 1.13.51 1.13 1.13v21.65c0 .1-.11.15-.19.09l-2.81-2.38-2.22-1.82c-.2-.17-.45-.26-.72-.26h-15.05c-.62 0-1.13-.51-1.13-1.13v-16.16c0-.62.51-1.13 1.13-1.13h19.86z"/></defs><clipPath id="SVGID_9_"><use xlink:href="#SVGID_8_" overflow="visible"/></clipPath><path class="st13" d="M213.33 148.52c.62 0 1.13.51 1.13 1.13v21.65c0 .1-.11.15-.19.09l-2.81-2.38-2.22-1.82c-.2-.17-.45-.26-.72-.26h-15.05c-.62 0-1.13-.51-1.13-1.13v-16.16c0-.62.51-1.13 1.13-1.13h19.86z"/><path class="st14" d="M208.52 153.06h.77v10.57h-.77z"/><g class="st15"><path class="st10" d="M208.52 153.06h.77v10.57h-.77z"/></g><g><defs><path id="SVGID_10_" d="M214.35 172.38a1.067 1.067 0 0 0 1.07-1.07v-21.65c0-1.15-.94-2.09-2.09-2.09h-19.85c-1.15 0-2.09.94-2.09 2.09v16.16c0 1.15.94 2.09 2.09 2.09h15.05c.04 0 .08.01.11.04l2.22 1.82 2.79 2.37c.21.15.45.24.7.24zm-1.02-22.9c.09 0 .17.08.17.17v19.83l-1.42-1.2-2.23-1.83c-.37-.3-.84-.47-1.32-.47h-15.05c-.09 0-.17-.08-.17-.17v-16.16c0-.09.08-.17.17-.17h19.85z"/></defs><clipPath id="SVGID_11_"><use xlink:href="#SVGID_10_" overflow="visible"/></clipPath><path class="st16" d="M214.35 172.38a1.067 1.067 0 0 0 1.07-1.07v-21.65c0-1.15-.94-2.09-2.09-2.09h-19.85c-1.15 0-2.09.94-2.09 2.09v16.16c0 1.15.94 2.09 2.09 2.09h15.05c.04 0 .08.01.11.04l2.22 1.82 2.79 2.37c.21.15.45.24.7.24zm-1.02-22.9c.09 0 .17.08.17.17v19.83l-1.42-1.2-2.23-1.83c-.37-.3-.84-.47-1.32-.47h-15.05c-.09 0-.17-.08-.17-.17v-16.16c0-.09.08-.17.17-.17h19.85z"/></g><path class="st17" d="M214.35 171.73c-.1 0-.19-.03-.27-.1l-2.81-2.37-2.22-1.81a.832.832 0 0 0-.52-.19h-15.05c-.79 0-1.44-.65-1.44-1.44v-16.16c0-.79.65-1.44 1.44-1.44h19.85c.79 0 1.44.65 1.44 1.44v21.65c0 .16-.1.32-.25.38-.05.03-.11.04-.17.04zm.12-.58c.01.01 0 0 0 0zm-20.99-22.32c-.45 0-.82.37-.82.82v16.16c0 .45.37.82.82.82h15.05c.33 0 .66.12.91.33l2.22 1.82 2.49 2.1v-21.23c0-.45-.37-.82-.82-.82h-19.85z"/></g><g><path class="st18" d="M243.19 75.61c0 3.28 1.44 6.22 3.72 8.22 1.93 1.71 4.46 2.74 7.24 2.74 2.77 0 5.31-1.03 7.24-2.74 2.28-2 3.72-4.94 3.72-8.22 0-6.05-4.91-10.96-10.96-10.96-6.06 0-10.96 4.9-10.96 10.96z"/><path class="st19" d="M246.91 83.83c.96.85 2.08 1.54 3.3 2.01a10.93 10.93 0 0 0 7.86 0 10.91 10.91 0 0 0 3.3-2.01c-.96-.85-2.08-1.54-3.3-2.01a10.93 10.93 0 0 0-7.86 0c-1.22.47-2.33 1.15-3.3 2.01z"/><circle class="st19" cx="254.15" cy="75.61" r="5.48"/></g><g><path class="st20" d="M254.15 86.88c-2.75 0-5.39-1-7.44-2.82a11.24 11.24 0 0 1-3.83-8.45c0-6.21 5.05-11.27 11.27-11.27 6.21 0 11.27 5.05 11.27 11.27 0 3.24-1.4 6.32-3.83 8.45a11.238 11.238 0 0 1-7.44 2.82zm0-21.92c-5.87 0-10.65 4.78-10.65 10.65 0 3.06 1.32 5.97 3.62 7.99 1.94 1.72 4.44 2.66 7.03 2.66 2.6 0 5.09-.95 7.03-2.66 2.3-2.02 3.62-4.93 3.62-7.99 0-5.88-4.78-10.65-10.65-10.65z"/><path class="st20" d="M261.18 84.06a10.568 10.568 0 0 0-7.03-2.66c-2.6 0-5.09.95-7.03 2.66l-.41-.46c2.05-1.82 4.69-2.82 7.44-2.82s5.39 1 7.44 2.82l-.41.46z"/><path class="st20" d="M254.15 81.4c-3.19 0-5.79-2.6-5.79-5.79s2.6-5.79 5.79-5.79 5.79 2.6 5.79 5.79-2.6 5.79-5.79 5.79zm0-10.96c-2.85 0-5.17 2.32-5.17 5.17s2.32 5.17 5.17 5.17 5.17-2.32 5.17-5.17-2.32-5.17-5.17-5.17z"/></g><g><path class="st21" d="M177.01 152.24c0 3.28 1.44 6.22 3.72 8.22 1.93 1.71 4.46 2.74 7.24 2.74 2.77 0 5.31-1.03 7.24-2.74 2.28-2 3.72-4.94 3.72-8.22 0-6.05-4.91-10.96-10.96-10.96-6.06 0-10.96 4.91-10.96 10.96z"/><path class="st12" d="M180.73 160.46c.96.85 2.08 1.54 3.3 2.01a10.93 10.93 0 0 0 7.86 0 10.91 10.91 0 0 0 3.3-2.01 10.91 10.91 0 0 0-3.3-2.01 10.93 10.93 0 0 0-7.86 0 10.91 10.91 0 0 0-3.3 2.01z"/><circle class="st12" cx="187.97" cy="152.24" r="5.48"/></g><g><path class="st22" d="M187.96 163.51c-2.75 0-5.39-1-7.44-2.82a11.24 11.24 0 0 1-3.83-8.45c0-6.21 5.05-11.27 11.27-11.27 6.21 0 11.27 5.05 11.27 11.27 0 3.24-1.4 6.32-3.83 8.45a11.168 11.168 0 0 1-7.44 2.82zm0-21.92c-5.87 0-10.65 4.78-10.65 10.65 0 3.06 1.32 5.97 3.62 7.99 1.94 1.72 4.44 2.66 7.03 2.66 2.6 0 5.09-.95 7.03-2.66 2.3-2.02 3.62-4.93 3.62-7.99 0-5.87-4.77-10.65-10.65-10.65z"/><path class="st22" d="M180.93 160.69l-.41-.46c2.05-1.82 4.69-2.82 7.44-2.82s5.39 1 7.44 2.82l-.41.46a10.568 10.568 0 0 0-7.03-2.66c-2.59 0-5.09.95-7.03 2.66z"/><path class="st22" d="M187.97 158.03c-3.19 0-5.79-2.6-5.79-5.79s2.6-5.79 5.79-5.79 5.79 2.6 5.79 5.79-2.6 5.79-5.79 5.79zm0-10.96c-2.85 0-5.17 2.32-5.17 5.17s2.32 5.17 5.17 5.17 5.17-2.32 5.17-5.17-2.32-5.17-5.17-5.17z"/></g><g><path class="st23" d="M121.79 104.18c0 3.28 1.44 6.22 3.72 8.22 1.93 1.71 4.46 2.74 7.24 2.74 2.77 0 5.31-1.03 7.24-2.74 2.28-2 3.72-4.94 3.72-8.22 0-6.05-4.91-10.96-10.96-10.96-6.06 0-10.96 4.91-10.96 10.96z"/><path class="st24" d="M125.51 112.4c.96.85 2.08 1.54 3.3 2.01a10.93 10.93 0 0 0 7.86 0 10.91 10.91 0 0 0 3.3-2.01 10.91 10.91 0 0 0-3.3-2.01 10.93 10.93 0 0 0-7.86 0c-1.22.47-2.34 1.15-3.3 2.01z"/><circle class="st24" cx="132.75" cy="104.18" r="5.48"/></g><g><path class="st25" d="M132.4 115.45c-2.75 0-5.39-1-7.44-2.82a11.24 11.24 0 0 1-3.83-8.45c0-6.21 5.05-11.27 11.27-11.27 6.21 0 11.27 5.05 11.27 11.27 0 3.24-1.4 6.32-3.83 8.45-2.05 1.82-4.7 2.82-7.44 2.82zm0-21.92c-5.87 0-10.65 4.78-10.65 10.65 0 3.06 1.32 5.97 3.62 7.99 1.94 1.72 4.43 2.66 7.03 2.66 2.6 0 5.09-.95 7.03-2.66 2.3-2.02 3.62-4.93 3.62-7.99 0-5.87-4.78-10.65-10.65-10.65z"/><path class="st25" d="M139.43 112.63a10.568 10.568 0 0 0-7.03-2.66c-2.6 0-5.09.95-7.03 2.66l-.41-.46c2.05-1.82 4.69-2.82 7.44-2.82s5.39 1 7.44 2.82l-.41.46z"/><path class="st25" d="M132.4 109.97c-3.19 0-5.79-2.6-5.79-5.79s2.6-5.79 5.79-5.79 5.79 2.6 5.79 5.79-2.6 5.79-5.79 5.79zm0-10.96c-2.85 0-5.17 2.32-5.17 5.17s2.32 5.17 5.17 5.17 5.17-2.32 5.17-5.17-2.32-5.17-5.17-5.17z"/></g><linearGradient id="SVGID_12_" gradientUnits="userSpaceOnUse" x1="191.374" y1="472.451" x2="74.356" y2="472.451" gradientTransform="matrix(1 0 0 -1 34.62 575.527)"><stop offset="0" stop-color="#a8dab5" stop-opacity="0"/><stop offset=".913" stop-color="#a8dab5"/></linearGradient><path class="st26" d="M154.54 83.91h75.86v38.33h-75.86z"/><path class="st27" d="M152.46 79.08h3.86v48h-3.86z"/><g><path class="st19" d="M124.8 78.49c.65 0 1.17.53 1.17 1.17v22.52c0 .1-.12.15-.19.09l-2.92-2.47-2.31-1.89c-.21-.17-.47-.27-.74-.27h-15.64c-.65 0-1.17-.53-1.17-1.17v-16.8c0-.65.53-1.17 1.17-1.17h20.63z"/><path class="st23" d="M124.8 78.49c.65 0 1.17.53 1.17 1.17v22.52c0 .1-.12.15-.19.09l-2.92-2.47-2.31-1.89c-.21-.17-.47-.27-.74-.27h-15.64c-.65 0-1.17-.53-1.17-1.17v-16.8c0-.65.53-1.17 1.17-1.17h20.63z"/><path class="st25" d="M125.86 102.6c-.1 0-.2-.03-.27-.1l-2.92-2.47-2.3-1.89a.846.846 0 0 0-.55-.2h-15.64c-.82 0-1.48-.67-1.48-1.48v-16.8c0-.82.67-1.48 1.48-1.48h20.64c.82 0 1.48.67 1.48 1.48v22.51c0 .17-.09.32-.25.39-.07.03-.13.04-.19.04zm-21.69-23.8a.86.86 0 0 0-.86.86v16.8c0 .48.39.86.86.86h15.64c.34 0 .68.12.94.34l2.31 1.89 2.61 2.21v-22.1a.86.86 0 0 0-.86-.86h-20.64z"/><path class="st10" d="M119.85 82.75h.99v11.33h-.99z"/></g></g></svg>